<svg width="306" height="66" viewBox="0 0 306 66" fill="none" xmlns="http://www.w3.org/2000/svg">
<path fill-rule="evenodd" clip-rule="evenodd" d="M304.925 0.909088C305.417 0.909088 305.739 1.07599 305.896 1.41283C306.053 1.74664 306.041 2.15328 305.797 2.59026L273.5 60.3299C272.619 61.9048 271.349 63.058 269.72 63.7984C268.09 64.5358 265.824 64.9091 262.925 64.9091H241.204C240.401 64.9091 240 64.5055 240 63.6952V58.1783C240 57.3681 240.401 56.9645 241.204 56.9645H262.186C263.881 56.9645 265.019 56.4486 265.601 55.4168L269.213 49.0229H269.156C269.261 48.9045 269.358 48.7619 269.454 48.595L271.153 45.5998L273.485 41.4849H273.497L295.822 1.84982C296.169 1.23986 296.67 0.909088 297.43 0.909088H304.925ZM264.225 45.3905C264.47 45.8426 265.143 45.967 265.487 45.4845L265.752 45.0142L269.837 37.8039C270.163 37.2759 269.931 36.9785 269.774 36.7115C266.069 30.2508 261.127 21.7387 257.425 15.278C257.111 14.6498 256.577 14.3342 255.819 14.3342H248.122C247.631 14.3342 247.308 14.5042 247.151 14.838C246.994 15.1748 247.03 15.5693 247.25 16.0184L264.222 45.3874L264.225 45.3905Z" fill="#07E0FF"/>
<path fill-rule="evenodd" clip-rule="evenodd" d="M223.948 34.1554L224 47.3492C224.006 48.387 223.521 48.9091 222.569 48.9091H215.55C214.554 48.9091 214.058 48.3902 214.052 47.3492L214 34.1459C214 33.5922 214.606 32.9119 215.323 32.9119C216.62 32.9056 220.515 32.9119 222.595 32.9119C223.327 32.9119 223.942 33.6143 223.945 34.1554" fill="#07E0FF"/>
<path fill-rule="evenodd" clip-rule="evenodd" d="M260.411 0.909088C261.472 0.909088 262 1.41704 262 2.43606V9.02711C262 10.043 261.469 10.5541 260.411 10.5541H233.774C231.978 10.5541 230.491 10.7058 229.315 11.0032C228.139 11.3036 227.207 11.8116 226.516 12.5301C225.825 13.2456 225.331 14.2182 225.029 15.4447C224.729 16.6681 224.581 18.1858 224.581 19.9884V21.376H244.034C245.682 21.376 246.305 22.0203 246.805 22.903L249.913 28.3821C250.416 29.2679 249.407 29.9091 248.392 29.9091C237.458 29.9091 226.525 29.9091 215.592 29.9091C214.531 29.9091 214 29.4011 214 28.3821V19.2265C214 15.8969 214.358 13.0753 215.071 10.7647C215.787 8.45101 216.916 6.56785 218.459 5.10902C220.002 3.6502 221.995 2.58782 224.436 1.91881C226.88 1.24979 229.849 0.912185 233.354 0.912185H260.405L260.411 0.909088Z" fill="white"/>
<path d="M159.247 10.9091H189.58C201.793 10.9091 206.002 14.7035 206.002 24.8451V43.3899C206.002 47.8052 204.967 48.9091 200.896 48.9091H168.628C160.693 48.9091 158.002 46.2185 158.002 39.1125V35.8009C158.002 29.3849 161.176 26.2803 168.628 26.2803H196.204V25.466C196.204 21.0506 194.548 19.4639 188.614 19.4639H159.247C158.419 19.4639 158.005 19.0499 158.005 18.2221V12.1509C158.005 11.323 158.419 10.9091 159.247 10.9091ZM194.065 40.6993C195.583 40.6993 196.204 40.0783 196.204 38.4226V33.3863H171.526C168.559 33.3863 167.731 34.2142 167.731 36.2839V37.7327C167.731 40.0783 168.559 40.6993 171.526 40.6993H194.065Z" fill="white"/>
<path d="M128.353 10.9091H148.762C149.59 10.9091 150.004 11.3231 150.004 12.1511V18.2231C150.004 19.0511 149.59 19.4651 148.762 19.4651H129.319C123.316 19.4651 121.798 20.9831 121.798 26.7791V47.3895C121.798 48.4245 121.315 48.9076 120.28 48.9076H113.518C112.483 48.9076 112 48.4245 112 47.3895V24.8471C112 14.7041 116.209 10.9091 128.353 10.9091Z" fill="white"/>
<path d="M57.245 10.9048H87.578C99.791 10.9048 104 14.6992 104 24.8408V43.3856C104 47.8009 102.965 48.9048 98.894 48.9048H66.626C58.691 48.9048 56 46.2142 56 39.1082V35.7966C56 29.3806 59.174 26.276 66.626 26.276H94.202V25.4617C94.202 21.0463 92.546 19.4596 86.612 19.4596H57.245C56.417 19.4596 56.003 19.0456 56.003 18.2177V12.1466C56.003 11.3187 56.417 10.9048 57.245 10.9048ZM92.063 40.695C93.581 40.695 94.202 40.074 94.202 38.4183V33.382H69.524C66.557 33.382 65.729 34.2099 65.729 36.2796V37.7284C65.729 40.074 66.557 40.695 69.524 40.695H92.063Z" fill="white"/>
<path d="M1.518 0.909088H8.97C10.005 0.909088 10.488 1.39191 10.488 2.42652V29.6473C10.488 36.9586 12.558 39.0968 19.665 39.0968L46.482 39.1148C47.448 39.1148 48 39.5976 48 40.6322V47.3917C48 48.4263 47.448 48.9091 46.482 48.9091L19.32 48.8911C5.313 48.8911 0 43.925 0 30.6819V2.42652C0 1.39191 0.483 0.909088 1.518 0.909088Z" fill="white"/>
</svg>
